HIERARCHY
ROOT SpineBase
{
  OFFSET 0.000000 0.000000 0.000000
  CHANNELS 6 Xposition Yposition Zposition Zrotation Xrotation Yrotation
  JOINT SpineMid
  {
    OFFSET 0.000000 31.007324 0.000000
    CHANNELS 3 Zrotation Xrotation Yrotation
    JOINT SpineShoulder
    {
      OFFSET -0.009688 22.937144 -0.818722
      CHANNELS 3 Zrotation Xrotation Yrotation
      JOINT Neck
      {
        OFFSET -0.011063 7.552872 -0.610964
        CHANNELS 3 Zrotation Xrotation Yrotation
        JOINT Head
        {
          OFFSET -1.649391 15.014323 -2.466782
          CHANNELS 3 Zrotation Xrotation Yrotation
          End Site
          {
            OFFSET 0 0 0
          }
        }
      }
      JOINT ShoulderLeft
      {
        OFFSET -17.486945 -1.372271 8.551226
        CHANNELS 3 Zrotation Xrotation Yrotation
        JOINT ElbowLeft
        {
          OFFSET -2.040665 -23.724100 -1.864606
          CHANNELS 3 Zrotation Xrotation Yrotation
          JOINT WristLeft
          {
            OFFSET 5.619418 -18.897450 -21.078867
            CHANNELS 3 Zrotation Xrotation Yrotation
            JOINT HandLeft
            {
              OFFSET 1.224398 -6.117085 4.512994
              CHANNELS 3 Zrotation Xrotation Yrotation
              JOINT HandTipLeft
              {
                OFFSET -2.835752 -7.617455 -1.966613
                CHANNELS 3 Zrotation Xrotation Yrotation
                End Site
                {
                  OFFSET 0 0 0
                }
              }
              JOINT ThumbLeft
              {
                OFFSET -5.183854 -1.446646 -0.689587
                CHANNELS 3 Zrotation Xrotation Yrotation
                End Site
                {
                  OFFSET 0 0 0
                }
              }
            }
          }
        }
      }
      JOINT ShoulderRight
      {
        OFFSET 15.705934 -5.141960 -6.522342
        CHANNELS 3 Zrotation Xrotation Yrotation
        JOINT ElbowRight
        {
          OFFSET 4.569188 -27.509757 0.581931
          CHANNELS 3 Zrotation Xrotation Yrotation
          JOINT WristRight
          {
            OFFSET -2.067434 -25.646800 -2.235344
            CHANNELS 3 Zrotation Xrotation Yrotation
            JOINT HandRight
            {
              OFFSET -2.018945 -8.192596 0.201687
              CHANNELS 3 Zrotation Xrotation Yrotation
              JOINT HandTipRight
              {
                OFFSET -0.530688 -6.887809 0.214129
                CHANNELS 3 Zrotation Xrotation Yrotation
                End Site
                {
                  OFFSET 0 0 0
                }
              }
              JOINT ThumbRight
              {
                OFFSET -4.042881 -1.208634 -2.406955
                CHANNELS 3 Zrotation Xrotation Yrotation
                End Site
                {
                  OFFSET 0 0 0
                }
              }
            }
          }
        }
      }
    }
  }
  JOINT HipLeft
  {
    OFFSET -8.209023 -0.299558 -1.235516
    CHANNELS 3 Zrotation Xrotation Yrotation
    JOINT KneeLeft
    {
      OFFSET -1.470607 -34.782903 12.938339
      CHANNELS 3 Zrotation Xrotation Yrotation
      JOINT AnkleLeft
      {
        OFFSET -2.724517 -39.570568 16.269161
        CHANNELS 3 Zrotation Xrotation Yrotation
        JOINT FootLeft
        {
          OFFSET -2.123475 -7.293875 -9.440066
          CHANNELS 3 Zrotation Xrotation Yrotation
          End Site
          {
            OFFSET 0 0 0
          }
        }
      }
    }
  }
  JOINT HipRight
  {
    OFFSET 7.919104 0.790195 -6.149285
    CHANNELS 3 Zrotation Xrotation Yrotation
    JOINT KneeRight
    {
      OFFSET -5.541508 -36.528609 5.436044
      CHANNELS 3 Zrotation Xrotation Yrotation
      JOINT AnkleRight
      {
        OFFSET 2.172921 -40.440254 15.956520
        CHANNELS 3 Zrotation Xrotation Yrotation
        JOINT FootRight
        {
          OFFSET -2.362697 -8.855660 -5.347374
          CHANNELS 3 Zrotation Xrotation Yrotation
          End Site
          {
            OFFSET 0 0 0
          }
        }
      }
    }
  }
}
MOTION
Frames: 6
Frame Time: 0.033333
14.156401 85.034327 383.988451 -0.000000 0.000000 16.944447 0.000000 0.000000 -16.944447 -0.000000 0.000000 0.000000 -0.000000 0.000000 0.000000 0.000000 0.000000 0.000000 -0.000000 0.000000 0.000000 -0.000000 0.000000 0.000000 -0.000000 0.000000 0.000000 -0.000000 0.000000 0.000000 0.000000 0.000000 0.000000 0.000000 0.000000 0.000000 -0.000000 0.000000 0.000000 -0.000000 0.000000 0.000000 -0.000000 0.000000 0.000000 -0.000000 0.000000 0.000000 0.000000 0.000000 0.000000 0.000000 0.000000 0.000000 0.000000 0.000000 -16.944447 -0.000000 0.000000 0.000000 -0.000000 0.000000 0.000000 0.000000 0.000000 0.000000 0.000000 0.000000 -16.944447 -0.000000 0.000000 0.000000 -0.000000 0.000000 0.000000 0.000000 0.000000 0.000000
13.852042 85.001381 383.839837 -0.306097 -0.134413 17.451010 0.332317 0.036429 -17.451475 -0.000000 0.000000 0.000000 -0.000000 0.000000 0.000000 0.000000 0.000000 0.000000 -0.136051 1.042433 -0.077675 0.137487 -1.042245 0.080163 -0.786075 -6.050175 -1.767012 3.468273 6.453308 0.521836 0.000000 0.000000 0.000000 0.000000 0.000000 0.000000 -0.000000 0.000000 0.000000 -0.000000 0.000000 0.000000 -1.274869 1.230322 -0.320110 0.151869 -2.772857 0.391515 0.000000 0.000000 0.000000 0.000000 0.000000 0.000000 0.441709 1.329758 -17.612442 0.287105 -1.265800 0.162835 -2.694559 3.211612 2.519292 0.000000 0.000000 0.000000 0.922599 -0.553356 -17.280107 -0.738846 0.387793 -0.166204 -5.006661 10.103908 0.718530 0.000000 0.000000 0.000000
13.536463 84.966129 383.695250 -0.541657 -0.256862 17.816109 0.594271 0.078807 -17.817732 -0.000000 0.000000 0.000000 -0.000000 0.000000 0.000000 0.000000 0.000000 0.000000 -0.152921 1.904984 -0.149102 -0.239577 -3.145321 0.215665 -1.074800 -9.806750 -3.271913 7.045650 11.782805 0.004866 0.000000 0.000000 0.000000 0.000000 0.000000 0.000000 -0.000000 0.000000 0.000000 -0.011106 -0.858083 0.070103 -2.419628 3.197820 -0.617462 0.412131 -4.865329 0.685263 0.000000 0.000000 0.000000 0.000000 0.000000 0.000000 0.979082 2.550777 -18.078244 0.401400 -2.469330 0.260331 -4.920575 5.814371 4.568185 0.000000 0.000000 0.000000 1.704500 -1.021549 -17.493501 -1.389746 0.715526 -0.306418 -8.786657 17.065977 1.844762 0.000000 0.000000 0.000000
13.209667 84.928571 383.554691 -0.706586 -0.367282 18.038885 0.785589 0.130402 -18.042044 -0.000000 0.000000 0.000000 1.056744 0.095461 0.183069 0.000000 0.000000 0.000000 -0.052914 2.593749 -0.217391 -0.443658 -4.171978 0.293291 -1.449117 -13.347152 -4.352292 10.740139 15.716055 -1.342419 0.000000 0.000000 0.000000 0.000000 0.000000 0.000000 0.748520 -0.598056 -0.079498 -0.779098 -0.599694 0.186609 -3.433802 4.511222 -0.823043 0.729174 -6.327943 0.908050 0.000000 0.000000 0.000000 0.000000 0.000000 0.000000 1.601084 3.644428 -18.340909 0.331563 -3.592032 0.282390 -6.678091 7.920344 6.144732 0.000000 0.000000 0.000000 2.345078 -1.391098 -17.587262 -2.604873 1.468876 -0.642393 -10.859197 20.902544 3.075456 0.000000 0.000000 0.000000
12.871652 84.888707 383.418161 -0.800878 -0.465627 18.119085 0.905974 0.193430 -18.123869 -0.000000 0.000000 0.000000 1.475979 0.029551 0.245039 0.000000 0.000000 0.000000 0.162750 3.113531 -0.284522 -0.707055 -4.850828 0.355085 -1.617141 -15.984467 -5.020468 14.338445 18.114928 -3.132862 0.000000 0.000000 0.000000 0.000000 0.000000 0.000000 1.013200 -0.645113 -0.079886 -1.073689 -0.830741 0.215564 -4.311421 5.620713 -0.974684 1.064724 -7.195016 1.075392 0.000000 0.000000 0.000000 0.000000 0.000000 0.000000 2.294651 4.596987 -18.400291 -0.743966 -4.874323 -0.162414 -7.230308 9.840956 7.614959 0.000000 0.000000 0.000000 2.843295 -1.651531 -17.564222 -3.117274 1.683640 -0.749056 -12.504844 23.177910 3.897674 0.000000 0.000000 0.000000
12.522418 84.846536 383.285659 -0.824610 -0.551867 18.056986 0.141415 0.092733 -18.086466 0.718712 0.420191 0.023199 1.929260 -0.085841 0.308404 0.000000 0.000000 0.000000 0.493880 3.467719 -0.351432 -1.031571 -5.188148 0.403199 -1.550134 -17.799085 -5.277205 17.419954 18.988514 -4.842004 0.000000 0.000000 0.000000 0.000000 0.000000 0.000000 1.286544 -0.616158 -0.068072 -1.387008 -1.076547 0.226880 -5.048328 6.519072 -1.082386 1.390671 -7.486685 1.195682 0.000000 0.000000 0.000000 0.000000 0.000000 0.000000 3.045225 5.400182 -18.257093 -1.882295 -5.327400 -0.697571 -7.474867 10.735441 8.543967 0.000000 0.000000 0.000000 3.197576 -1.795534 -17.427131 -3.447294 1.756327 -0.806199 -13.309321 23.813279 4.356184 0.000000 0.000000 0.000000
